<?xml version="1.0" encoding="UTF-8"?>
<svg xmlns="http://www.w3.org/2000/svg" version="1.1" viewBox="0 0 500 500">
  <defs>
    <style>
      .cls-1 {
        fill: #4ba29a;
      }

      .cls-2 {
        fill: #09333a;
      }

      .cls-3 {
        fill: #95d3c6;
      }

      .cls-4 {
        fill: #c8f0e3;
      }
    </style>
  </defs>
  <!-- Generator: Adobe Illustrator 28.6.0, SVG Export Plug-In . SVG Version: 1.2.0 Build 709)  -->
  <g>
    <g id="Camada_1">
      <g>
        <path class="cls-3" d="M323.7,133.8c0,37.1-26.1,67.2-58.3,67.2s-58.3-30.1-58.3-67.2,22-18,54.2-18,62.4-19.1,62.4,18h0Z"/>
        <path class="cls-4" d="M293.4,134.7c0,37.1-26.1,67.2-58.3,67.2-46.9,0-46.8,35.7-47.8,18.5-1.6-31.1-2.2-59.8-2.2-78.3,0-37.1,13.6-25.4,45.8-25.4s62.4-19.1,62.4,18h0Z"/>
        <path class="cls-1" d="M265.2,95.5c-24.5-5.4-50.3,5.2-62.4,27.7-12.1,22.5-6.2,51.7,13.5,69.1,24.5,5.4,50.3-5.2,62.4-27.7,12.1-22.5,6.2-51.7-13.5-69.1h0Z"/>
      </g>
      <g>
        <path class="cls-2" d="M75.7,361v-130.2h43.9c51.8,0,52.8,88-2,88s-15.8-2.1-22.3-6.6v48.8h-19.6ZM119.5,249.8h-24.1v30c0,15.1,12.5,19.8,21.9,19.8,28.5,0,27.7-49.8,2.1-49.8Z"/>
        <path class="cls-2" d="M161.9,187.3h19.8v130.4h-19.8v-130.4Z"/>
        <path class="cls-2" d="M185,277.6v-46.9h19.8v49.8c0,11.5,7.6,19.1,18.3,19.1s18.3-7.6,18.3-19.1v-49.8h19.8v46.9c0,25.7-13.9,41.2-38.1,41.2s-38.1-15.5-38.1-41.2Z"/>
        <path class="cls-2" d="M264.4,317.6v-63.2c0-13.7,8.2-23.6,24.1-23.6h24.7v19.1h-21.8c-5.3,0-7.3,2.8-7.3,6.9v60.8h-19.8Z"/>
        <path class="cls-2" d="M398.7,317.7h-19.8v-4.9c-6.4,4.3-14.4,5.9-21.8,5.9-28.7,0-42.9-22.1-42.7-44.6.2-29.3,22.4-44.6,44-44.6s40.3,12.2,40.3,40.8v47.4ZM359.2,299.7c13.5,0,20.3-12.7,20.5-25.4.3-17-10.6-25.2-21.8-25.4-11.7-.2-23.8,8.5-23.8,25s8.2,25.7,25.1,25.7Z"/>
        <path class="cls-2" d="M402,187.3h19.8v130.4h-19.8v-130.4Z"/>
      </g>
    </g>
  </g>
</svg>